<svg width="24" height="24" viewBox="0 0 24 24" fill="none" xmlns="http://www.w3.org/2000/svg">
<path d="M12.0004 12.8235C13.1924 12.8235 14.2723 13.2247 15.0645 13.7857C15.8174 14.3195 16.455 15.1128 16.455 15.9663C16.455 16.4348 16.2584 16.823 15.9484 17.1116C15.657 17.384 15.2764 17.5606 14.8844 17.681C14.1011 17.9224 13.0695 18 12.0004 18C10.9314 18 9.89981 17.9224 9.11644 17.681C8.72444 17.5606 8.3439 17.384 8.05181 17.1116C7.74317 16.8236 7.5459 16.4354 7.5459 15.9669C7.5459 15.1135 8.18353 14.3202 8.93635 13.7864C9.72863 13.2247 10.8085 12.8235 12.0004 12.8235ZM12.0004 7C12.6755 7 13.323 7.27269 13.8004 7.75808C14.2777 8.24346 14.5459 8.90179 14.5459 9.58824C14.5459 10.2747 14.2777 10.933 13.8004 11.4184C13.323 11.9038 12.6755 12.1765 12.0004 12.1765C11.3253 12.1765 10.6779 11.9038 10.2005 11.4184C9.72317 10.933 9.45499 10.2747 9.45499 9.58824C9.45499 8.90179 9.72317 8.24346 10.2005 7.75808C10.6779 7.27269 11.3253 7 12.0004 7Z" fill="#4094F7"/>
</svg>
